<?xml version="1.0" standalone="no"?>
<!DOCTYPE svg PUBLIC "-//W3C//DTD SVG 20010904//EN"
 "http://www.w3.org/TR/2001/REC-SVG-20010904/DTD/svg10.dtd">
<svg version="1.0" xmlns="http://www.w3.org/2000/svg"
 width="225.000000pt" height="225.000000pt" viewBox="0 0 225.000000 225.000000"
 preserveAspectRatio="xMidYMid meet">

<g transform="translate(0.000000,225.000000) scale(0.100000,-0.100000)"
fill="#fff" stroke="none">
<path d="M1043 1754 c-13 -13 -23 -31 -23 -42 0 -11 -14 -25 -35 -35 -35 -16
-37 -16 -65 4 -28 21 -30 21 -57 4 -60 -38 -78 -82 -47 -116 15 -17 15 -22 1
-56 -10 -27 -22 -39 -38 -41 -41 -6 -59 -31 -59 -82 0 -51 18 -76 59 -82 16
-2 28 -14 38 -40 13 -34 13 -39 -1 -53 -27 -27 -19 -60 24 -99 22 -20 44 -36
49 -36 4 0 20 9 34 20 26 20 27 20 64 2 21 -10 37 -24 35 -31 -1 -7 4 -24 13
-37 13 -19 24 -24 61 -24 60 0 84 14 84 49 0 23 7 31 41 44 39 16 42 15 70 -5
l29 -22 27 20 c15 11 36 32 47 47 20 27 20 28 2 61 -16 30 -16 38 -5 70 10 27
19 36 36 36 35 0 63 34 63 78 0 49 -23 82 -59 82 -24 0 -30 6 -40 40 -10 34
-9 44 4 62 23 34 18 53 -26 92 -41 38 -66 41 -97 11 -11 -10 -21 -10 -53 3
-32 12 -39 20 -39 42 0 36 -20 52 -72 54 -33 2 -48 -3 -65 -20z m97 -58 c0
-32 4 -36 56 -60 68 -31 72 -31 99 -6 l21 20 22 -23 22 -24 -20 -18 c-25 -23
-25 -28 1 -84 33 -74 35 -76 68 -79 27 -3 31 -7 31 -32 0 -26 -4 -29 -36 -32
-33 -3 -37 -7 -51 -48 -8 -25 -19 -49 -24 -54 -15 -16 -10 -38 11 -61 l20 -21
-23 -22 -23 -22 -23 24 -23 24 -51 -24 c-29 -13 -57 -24 -64 -24 -6 0 -13 -17
-15 -37 -3 -35 -6 -38 -35 -40 -32 -1 -33 0 -33 38 0 24 -5 39 -12 39 -7 0
-37 11 -65 25 l-53 24 -29 -25 -30 -25 -17 26 c-16 25 -16 27 5 49 l22 23 -22
49 c-12 27 -25 56 -29 64 -4 8 -21 16 -39 18 -27 3 -31 7 -31 33 0 24 4 29 24
29 26 0 56 23 56 43 0 7 9 29 20 50 l20 37 -22 30 -22 30 22 22 22 22 24 -23
24 -23 64 25 c59 24 63 28 66 61 3 34 5 36 38 36 32 0 34 -2 34 -34z"/>
<path d="M1075 1542 c-66 -9 -125 -81 -125 -154 0 -46 38 -107 80 -130 55 -30
131 -21 175 22 113 110 27 284 -130 262z m83 -62 c38 -24 56 -62 48 -108 -6
-42 -22 -61 -64 -79 -96 -40 -185 79 -121 161 38 49 85 57 137 26z"/>
<path d="M1670 1760 c-89 -42 -124 -99 -118 -195 6 -104 44 -138 216 -195 96
-32 122 -52 122 -91 0 -41 -9 -58 -41 -74 -57 -30 -154 -14 -216 35 l-27 21
-43 -43 -44 -43 42 -38 c88 -79 269 -101 376 -45 99 51 142 173 94 270 -27 55
-66 81 -187 123 -139 47 -171 90 -113 150 30 31 115 27 167 -8 l41 -26 41 46
c47 54 44 62 -37 104 -68 34 -208 39 -273 9z"/>
<path d="M473 1460 c-54 -24 -69 -51 -54 -100 11 -37 10 -39 -31 -80 -40 -40
-44 -41 -76 -32 -50 16 -79 0 -102 -54 -28 -64 -26 -98 6 -123 15 -12 32 -21
39 -21 8 0 12 -20 11 -65 -1 -64 -2 -65 -36 -83 -40 -19 -48 -46 -31 -103 23
-77 70 -107 123 -78 17 9 26 4 65 -35 44 -43 45 -46 33 -76 -21 -50 0 -84 69
-110 68 -25 104 -16 120 31 10 28 13 29 74 29 62 0 64 -1 79 -34 10 -20 26
-36 42 -40 34 -8 116 25 140 57 16 22 17 29 6 62 -12 37 -12 38 33 82 38 39
47 44 65 34 54 -29 100 1 123 79 18 60 6 88 -48 111 -26 11 -52 18 -60 15 -25
-10 -13 -36 27 -56 45 -23 46 -24 25 -74 -17 -41 -19 -42 -69 -21 l-36 15 -66
-67 -66 -68 16 -43 15 -43 -41 -19 c-23 -10 -46 -16 -50 -13 -5 2 -15 21 -24
41 l-14 37 -95 0 -94 0 -17 -38 c-10 -21 -21 -40 -25 -43 -5 -3 -27 5 -49 16
-32 16 -40 25 -35 38 29 70 30 65 -40 135 l-66 67 -36 -15 c-49 -21 -52 -20
-69 20 -21 51 -18 60 24 77 l38 15 1 96 0 96 -38 15 c-43 17 -46 27 -24 79
l15 36 44 -16 44 -16 67 66 67 67 -16 41 c-9 23 -16 43 -14 44 12 10 70 35 81
35 8 0 22 -18 31 -40 11 -28 22 -40 36 -40 26 0 26 29 0 79 -28 57 -62 64
-137 31z"/>
<path d="M620 1185 c-106 -33 -167 -143 -140 -254 51 -214 352 -213 411 2 5
21 7 47 4 58 -11 33 -38 18 -47 -25 -24 -116 -134 -177 -234 -130 -64 31 -103
108 -89 180 9 51 67 108 125 125 57 16 66 24 50 44 -15 18 -21 18 -80 0z"/>
<path d="M1245 948 c3 -24 14 -122 25 -218 11 -96 22 -194 25 -217 l6 -43 77
0 77 0 65 125 c36 69 68 125 71 125 3 0 12 -56 19 -125 l13 -126 79 3 80 3
134 250 c74 138 134 253 134 258 0 4 -40 7 -88 7 l-88 0 -70 -142 -69 -142 -7
80 c-4 43 -10 107 -14 142 l-6 62 -67 0 -67 0 -69 -141 -70 -140 -7 53 c-4 29
-10 92 -13 141 l-7 87 -85 0 -84 0 6 -42z"/>
</g>
</svg>
