<?xml version="1.0" standalone="no"?>
<svg xmlns:xlink="http://www.w3.org/1999/xlink" id="wave" style="transform:rotate(0deg); transition: 0.3s" viewBox="0 0 1440 330" version="1.1" xmlns="http://www.w3.org/2000/svg"><defs><linearGradient id="sw-gradient-0" x1="0" x2="0" y1="1" y2="0"><stop stop-color="rgba(66, 153, 225, 1)" offset="0%"/><stop stop-color="rgba(255, 255, 255, 1)" offset="100%"/></linearGradient></defs><path style="transform:translate(0, 0px); opacity:1" fill="url(#sw-gradient-0)" d="M0,132L40,115.5C80,99,160,66,240,77C320,88,400,143,480,154C560,165,640,132,720,143C800,154,880,209,960,225.5C1040,242,1120,220,1200,181.5C1280,143,1360,88,1440,99C1520,110,1600,187,1680,198C1760,209,1840,154,1920,154C2000,154,2080,209,2160,220C2240,231,2320,198,2400,198C2480,198,2560,231,2640,242C2720,253,2800,242,2880,203.5C2960,165,3040,99,3120,93.5C3200,88,3280,143,3360,165C3440,187,3520,176,3600,170.5C3680,165,3760,165,3840,170.5C3920,176,4000,187,4080,198C4160,209,4240,220,4320,203.5C4400,187,4480,143,4560,132C4640,121,4720,143,4800,143C4880,143,4960,121,5040,104.5C5120,88,5200,77,5280,88C5360,99,5440,132,5520,121C5600,110,5680,55,5720,27.5L5760,0L5760,330L5720,330C5680,330,5600,330,5520,330C5440,330,5360,330,5280,330C5200,330,5120,330,5040,330C4960,330,4880,330,4800,330C4720,330,4640,330,4560,330C4480,330,4400,330,4320,330C4240,330,4160,330,4080,330C4000,330,3920,330,3840,330C3760,330,3680,330,3600,330C3520,330,3440,330,3360,330C3280,330,3200,330,3120,330C3040,330,2960,330,2880,330C2800,330,2720,330,2640,330C2560,330,2480,330,2400,330C2320,330,2240,330,2160,330C2080,330,2000,330,1920,330C1840,330,1760,330,1680,330C1600,330,1520,330,1440,330C1360,330,1280,330,1200,330C1120,330,1040,330,960,330C880,330,800,330,720,330C640,330,560,330,480,330C400,330,320,330,240,330C160,330,80,330,40,330L0,330Z"/></svg>