<?xml version="1.0" standalone="no"?>
<svg xmlns:xlink="http://www.w3.org/1999/xlink" id="wave" style="transform:rotate(0deg); transition: 0.3s" viewBox="0 0 1440 330" version="1.1" xmlns="http://www.w3.org/2000/svg"><defs><linearGradient id="sw-gradient-0" x1="0" x2="0" y1="1" y2="0"><stop stop-color="rgba(66, 153, 225, 1)" offset="0%"/><stop stop-color="rgba(255, 255, 255, 1)" offset="100%"/></linearGradient></defs><path style="transform:translate(0, 0px); opacity:1" fill="url(#sw-gradient-0)" d="M0,0L40,49.5C80,99,160,198,240,247.5C320,297,400,297,480,286C560,275,640,253,720,220C800,187,880,143,960,148.5C1040,154,1120,209,1200,192.5C1280,176,1360,88,1440,44C1520,0,1600,0,1680,27.5C1760,55,1840,110,1920,132C2000,154,2080,143,2160,132C2240,121,2320,110,2400,99C2480,88,2560,77,2640,77C2720,77,2800,88,2880,126.5C2960,165,3040,231,3120,258.5C3200,286,3280,275,3360,231C3440,187,3520,110,3600,71.5C3680,33,3760,33,3840,44C3920,55,4000,77,4080,115.5C4160,154,4240,209,4320,231C4400,253,4480,242,4560,220C4640,198,4720,165,4800,143C4880,121,4960,110,5040,88C5120,66,5200,33,5280,49.5C5360,66,5440,132,5520,137.5C5600,143,5680,88,5720,60.5L5760,33L5760,330L5720,330C5680,330,5600,330,5520,330C5440,330,5360,330,5280,330C5200,330,5120,330,5040,330C4960,330,4880,330,4800,330C4720,330,4640,330,4560,330C4480,330,4400,330,4320,330C4240,330,4160,330,4080,330C4000,330,3920,330,3840,330C3760,330,3680,330,3600,330C3520,330,3440,330,3360,330C3280,330,3200,330,3120,330C3040,330,2960,330,2880,330C2800,330,2720,330,2640,330C2560,330,2480,330,2400,330C2320,330,2240,330,2160,330C2080,330,2000,330,1920,330C1840,330,1760,330,1680,330C1600,330,1520,330,1440,330C1360,330,1280,330,1200,330C1120,330,1040,330,960,330C880,330,800,330,720,330C640,330,560,330,480,330C400,330,320,330,240,330C160,330,80,330,40,330L0,330Z"/><defs><linearGradient id="sw-gradient-1" x1="0" x2="0" y1="1" y2="0"><stop stop-color="rgba(82.453, 142.985, 205.515, 1)" offset="0%"/><stop stop-color="rgba(66, 153, 225, 1)" offset="100%"/></linearGradient></defs><path style="transform:translate(0, 50px); opacity:0.9" fill="url(#sw-gradient-1)" d="M0,132L40,148.5C80,165,160,198,240,176C320,154,400,77,480,88C560,99,640,198,720,214.5C800,231,880,165,960,148.5C1040,132,1120,165,1200,187C1280,209,1360,220,1440,220C1520,220,1600,209,1680,176C1760,143,1840,88,1920,55C2000,22,2080,11,2160,55C2240,99,2320,198,2400,198C2480,198,2560,99,2640,71.5C2720,44,2800,88,2880,88C2960,88,3040,44,3120,49.5C3200,55,3280,110,3360,115.5C3440,121,3520,77,3600,60.5C3680,44,3760,55,3840,60.5C3920,66,4000,66,4080,71.5C4160,77,4240,88,4320,88C4400,88,4480,77,4560,93.5C4640,110,4720,154,4800,170.5C4880,187,4960,176,5040,181.5C5120,187,5200,209,5280,209C5360,209,5440,187,5520,148.5C5600,110,5680,55,5720,27.5L5760,0L5760,330L5720,330C5680,330,5600,330,5520,330C5440,330,5360,330,5280,330C5200,330,5120,330,5040,330C4960,330,4880,330,4800,330C4720,330,4640,330,4560,330C4480,330,4400,330,4320,330C4240,330,4160,330,4080,330C4000,330,3920,330,3840,330C3760,330,3680,330,3600,330C3520,330,3440,330,3360,330C3280,330,3200,330,3120,330C3040,330,2960,330,2880,330C2800,330,2720,330,2640,330C2560,330,2480,330,2400,330C2320,330,2240,330,2160,330C2080,330,2000,330,1920,330C1840,330,1760,330,1680,330C1600,330,1520,330,1440,330C1360,330,1280,330,1200,330C1120,330,1040,330,960,330C880,330,800,330,720,330C640,330,560,330,480,330C400,330,320,330,240,330C160,330,80,330,40,330L0,330Z"/></svg>