<?xml version="1.0" standalone="no"?>
<svg xmlns:xlink="http://www.w3.org/1999/xlink" id="wave" style="transform:rotate(0deg); transition: 0.3s" viewBox="0 0 1440 330" version="1.1" xmlns="http://www.w3.org/2000/svg"><defs><linearGradient id="sw-gradient-0" x1="0" x2="0" y1="1" y2="0"><stop stop-color="rgba(66, 153, 225, 1)" offset="0%"/><stop stop-color="rgba(255, 255, 255, 1)" offset="100%"/></linearGradient></defs><path style="transform:translate(0, 0px); opacity:1" fill="url(#sw-gradient-0)" d="M0,231L40,214.5C80,198,160,165,240,143C320,121,400,110,480,99C560,88,640,77,720,99C800,121,880,176,960,165C1040,154,1120,77,1200,38.5C1280,0,1360,0,1440,5.5C1520,11,1600,22,1680,22C1760,22,1840,11,1920,33C2000,55,2080,110,2160,110C2240,110,2320,55,2400,44C2480,33,2560,66,2640,110C2720,154,2800,209,2880,209C2960,209,3040,154,3120,115.5C3200,77,3280,55,3360,60.5C3440,66,3520,99,3600,99C3680,99,3760,66,3840,77C3920,88,4000,143,4080,176C4160,209,4240,220,4320,220C4400,220,4480,209,4560,187C4640,165,4720,132,4800,132C4880,132,4960,165,5040,154C5120,143,5200,88,5280,60.5C5360,33,5440,33,5520,55C5600,77,5680,121,5720,143L5760,165L5760,330L5720,330C5680,330,5600,330,5520,330C5440,330,5360,330,5280,330C5200,330,5120,330,5040,330C4960,330,4880,330,4800,330C4720,330,4640,330,4560,330C4480,330,4400,330,4320,330C4240,330,4160,330,4080,330C4000,330,3920,330,3840,330C3760,330,3680,330,3600,330C3520,330,3440,330,3360,330C3280,330,3200,330,3120,330C3040,330,2960,330,2880,330C2800,330,2720,330,2640,330C2560,330,2480,330,2400,330C2320,330,2240,330,2160,330C2080,330,2000,330,1920,330C1840,330,1760,330,1680,330C1600,330,1520,330,1440,330C1360,330,1280,330,1200,330C1120,330,1040,330,960,330C880,330,800,330,720,330C640,330,560,330,480,330C400,330,320,330,240,330C160,330,80,330,40,330L0,330Z"/><defs><linearGradient id="sw-gradient-1" x1="0" x2="0" y1="1" y2="0"><stop stop-color="rgba(82.453, 142.985, 205.515, 1)" offset="0%"/><stop stop-color="rgba(66, 153, 225, 1)" offset="100%"/></linearGradient></defs><path style="transform:translate(0, 50px); opacity:0.9" fill="url(#sw-gradient-1)" d="M0,198L40,192.5C80,187,160,176,240,176C320,176,400,187,480,209C560,231,640,264,720,242C800,220,880,143,960,99C1040,55,1120,44,1200,38.5C1280,33,1360,33,1440,49.5C1520,66,1600,99,1680,99C1760,99,1840,66,1920,88C2000,110,2080,187,2160,187C2240,187,2320,110,2400,115.5C2480,121,2560,209,2640,220C2720,231,2800,165,2880,165C2960,165,3040,231,3120,242C3200,253,3280,209,3360,209C3440,209,3520,253,3600,264C3680,275,3760,253,3840,220C3920,187,4000,143,4080,115.5C4160,88,4240,77,4320,110C4400,143,4480,220,4560,209C4640,198,4720,99,4800,77C4880,55,4960,110,5040,148.5C5120,187,5200,209,5280,231C5360,253,5440,275,5520,280.5C5600,286,5680,275,5720,269.5L5760,264L5760,330L5720,330C5680,330,5600,330,5520,330C5440,330,5360,330,5280,330C5200,330,5120,330,5040,330C4960,330,4880,330,4800,330C4720,330,4640,330,4560,330C4480,330,4400,330,4320,330C4240,330,4160,330,4080,330C4000,330,3920,330,3840,330C3760,330,3680,330,3600,330C3520,330,3440,330,3360,330C3280,330,3200,330,3120,330C3040,330,2960,330,2880,330C2800,330,2720,330,2640,330C2560,330,2480,330,2400,330C2320,330,2240,330,2160,330C2080,330,2000,330,1920,330C1840,330,1760,330,1680,330C1600,330,1520,330,1440,330C1360,330,1280,330,1200,330C1120,330,1040,330,960,330C880,330,800,330,720,330C640,330,560,330,480,330C400,330,320,330,240,330C160,330,80,330,40,330L0,330Z"/></svg>