<?xml version="1.0" standalone="no"?>
<svg xmlns:xlink="http://www.w3.org/1999/xlink" id="wave" style="transform:rotate(0deg); transition: 0.3s" viewBox="0 0 1440 330" version="1.1" xmlns="http://www.w3.org/2000/svg"><defs><linearGradient id="sw-gradient-0" x1="0" x2="0" y1="1" y2="0"><stop stop-color="rgba(66, 153, 225, 1)" offset="0%"/><stop stop-color="rgba(255, 255, 255, 1)" offset="100%"/></linearGradient></defs><path style="transform:translate(0, 0px); opacity:1" fill="url(#sw-gradient-0)" d="M0,99L40,121C80,143,160,187,240,170.5C320,154,400,77,480,71.5C560,66,640,132,720,181.5C800,231,880,264,960,275C1040,286,1120,275,1200,269.5C1280,264,1360,264,1440,236.5C1520,209,1600,154,1680,148.5C1760,143,1840,187,1920,220C2000,253,2080,275,2160,247.5C2240,220,2320,143,2400,126.5C2480,110,2560,154,2640,187C2720,220,2800,242,2880,231C2960,220,3040,176,3120,181.5C3200,187,3280,242,3360,253C3440,264,3520,231,3600,225.5C3680,220,3760,242,3840,258.5C3920,275,4000,286,4080,275C4160,264,4240,231,4320,187C4400,143,4480,88,4560,99C4640,110,4720,187,4800,214.5C4880,242,4960,220,5040,209C5120,198,5200,198,5280,181.5C5360,165,5440,132,5520,143C5600,154,5680,209,5720,236.5L5760,264L5760,330L5720,330C5680,330,5600,330,5520,330C5440,330,5360,330,5280,330C5200,330,5120,330,5040,330C4960,330,4880,330,4800,330C4720,330,4640,330,4560,330C4480,330,4400,330,4320,330C4240,330,4160,330,4080,330C4000,330,3920,330,3840,330C3760,330,3680,330,3600,330C3520,330,3440,330,3360,330C3280,330,3200,330,3120,330C3040,330,2960,330,2880,330C2800,330,2720,330,2640,330C2560,330,2480,330,2400,330C2320,330,2240,330,2160,330C2080,330,2000,330,1920,330C1840,330,1760,330,1680,330C1600,330,1520,330,1440,330C1360,330,1280,330,1200,330C1120,330,1040,330,960,330C880,330,800,330,720,330C640,330,560,330,480,330C400,330,320,330,240,330C160,330,80,330,40,330L0,330Z"/><defs><linearGradient id="sw-gradient-1" x1="0" x2="0" y1="1" y2="0"><stop stop-color="rgba(82.453, 142.985, 205.515, 1)" offset="0%"/><stop stop-color="rgba(66, 153, 225, 1)" offset="100%"/></linearGradient></defs><path style="transform:translate(0, 50px); opacity:0.9" fill="url(#sw-gradient-1)" d="M0,231L40,220C80,209,160,187,240,187C320,187,400,209,480,214.5C560,220,640,209,720,187C800,165,880,132,960,110C1040,88,1120,77,1200,88C1280,99,1360,132,1440,137.5C1520,143,1600,121,1680,126.5C1760,132,1840,165,1920,181.5C2000,198,2080,198,2160,198C2240,198,2320,198,2400,203.5C2480,209,2560,220,2640,198C2720,176,2800,121,2880,132C2960,143,3040,220,3120,236.5C3200,253,3280,209,3360,181.5C3440,154,3520,143,3600,148.5C3680,154,3760,176,3840,187C3920,198,4000,198,4080,192.5C4160,187,4240,176,4320,159.5C4400,143,4480,121,4560,126.5C4640,132,4720,165,4800,159.5C4880,154,4960,110,5040,82.5C5120,55,5200,44,5280,38.5C5360,33,5440,33,5520,44C5600,55,5680,77,5720,88L5760,99L5760,330L5720,330C5680,330,5600,330,5520,330C5440,330,5360,330,5280,330C5200,330,5120,330,5040,330C4960,330,4880,330,4800,330C4720,330,4640,330,4560,330C4480,330,4400,330,4320,330C4240,330,4160,330,4080,330C4000,330,3920,330,3840,330C3760,330,3680,330,3600,330C3520,330,3440,330,3360,330C3280,330,3200,330,3120,330C3040,330,2960,330,2880,330C2800,330,2720,330,2640,330C2560,330,2480,330,2400,330C2320,330,2240,330,2160,330C2080,330,2000,330,1920,330C1840,330,1760,330,1680,330C1600,330,1520,330,1440,330C1360,330,1280,330,1200,330C1120,330,1040,330,960,330C880,330,800,330,720,330C640,330,560,330,480,330C400,330,320,330,240,330C160,330,80,330,40,330L0,330Z"/></svg>